<svg xmlns="http://www.w3.org/2000/svg" width="135.34" height="35" viewBox="0 0 135.34 35"><rect class="svg__rect" x="0" y="0" width="45.54" height="35" fill="#E46C17"/><rect class="svg__rect" x="43.54" y="0" width="91.8" height="35" fill="#D35B09"/><path class="svg__text" d="M15.00 22L13.46 22L16.68 13.47L18.01 13.47L21.24 22L19.69 22L18.99 20.01L15.69 20.01L15.00 22ZM17.34 15.28L16.10 18.82L18.58 18.82L17.34 15.28ZM26.87 14.66L24.24 14.66L24.24 13.47L31.00 13.47L31.00 14.66L28.34 14.66L28.34 22L26.87 22L26.87 14.66Z" fill="#FFFFFF"/><path class="svg__text" d="M57.30 17.80L57.30 17.80Q57.30 16.54 57.90 15.54Q58.50 14.55 59.55 13.99Q60.60 13.43 61.92 13.43L61.92 13.43Q63.07 13.43 63.99 13.84Q64.92 14.25 65.53 15.02L65.53 15.02L64.02 16.39Q63.21 15.40 62.04 15.40L62.04 15.40Q61.35 15.40 60.82 15.70Q60.29 16 59.99 16.54Q59.70 17.09 59.70 17.80L59.70 17.80Q59.70 18.51 59.99 19.05Q60.29 19.60 60.82 19.90Q61.35 20.20 62.04 20.20L62.04 20.20Q63.21 20.20 64.02 19.22L64.02 19.22L65.53 20.58Q64.92 21.35 64.00 21.76Q63.07 22.17 61.92 22.17L61.92 22.17Q60.60 22.17 59.55 21.61Q58.50 21.05 57.90 20.05Q57.30 19.06 57.30 17.80ZM76.81 22L70.07 22L70.07 13.60L76.66 13.60L76.66 15.44L72.42 15.44L72.42 16.85L76.16 16.85L76.16 18.63L72.42 18.63L72.42 20.17L76.81 20.17L76.81 22ZM81.03 21.24L81.03 21.24L81.81 19.49Q82.37 19.86 83.12 20.09Q83.86 20.32 84.58 20.32L84.58 20.32Q85.95 20.32 85.95 19.64L85.95 19.64Q85.95 19.28 85.56 19.11Q85.17 18.93 84.31 18.74L84.31 18.74Q83.36 18.53 82.72 18.30Q82.09 18.06 81.63 17.55Q81.18 17.03 81.18 16.16L81.18 16.16Q81.18 15.39 81.60 14.77Q82.01 14.15 82.85 13.79Q83.68 13.43 84.89 13.43L84.89 13.43Q85.72 13.43 86.52 13.62Q87.33 13.80 87.94 14.17L87.94 14.17L87.21 15.93Q86.01 15.28 84.88 15.28L84.88 15.28Q84.17 15.28 83.85 15.49Q83.53 15.70 83.53 16.04L83.53 16.04Q83.53 16.37 83.91 16.54Q84.29 16.71 85.14 16.89L85.14 16.89Q86.10 17.10 86.73 17.33Q87.36 17.56 87.83 18.07Q88.29 18.58 88.29 19.46L88.29 19.46Q88.29 20.21 87.87 20.83Q87.45 21.44 86.61 21.80Q85.77 22.17 84.57 22.17L84.57 22.17Q83.55 22.17 82.59 21.92Q81.63 21.67 81.03 21.24ZM91.79 20.93L91.79 20.93L93.08 19.40Q93.75 20.27 94.52 20.27L94.52 20.27Q94.53 20.27 94.54 20.27L94.54 20.27Q95.05 20.27 95.32 19.96Q95.59 19.65 95.59 19.05L95.59 19.05L95.59 15.44L92.69 15.44L92.69 13.60L97.95 13.60L97.95 18.91Q97.95 20.54 97.12 21.36Q96.30 22.17 94.71 22.17L94.71 22.17Q93.78 22.17 93.02 21.85Q92.27 21.53 91.79 20.93ZM107.01 22L103.03 22L103.03 13.60L107.01 13.60Q108.39 13.60 109.45 14.12Q110.52 14.63 111.11 15.58Q111.70 16.53 111.70 17.80L111.70 17.80Q111.70 19.07 111.11 20.02Q110.52 20.97 109.45 21.48Q108.39 22 107.01 22L107.01 22ZM105.41 15.50L105.41 20.10L106.91 20.10Q107.99 20.10 108.64 19.49Q109.30 18.88 109.30 17.80L109.30 17.80Q109.30 16.72 108.64 16.11Q107.99 15.50 106.91 15.50L106.91 15.50L105.41 15.50ZM115.84 21.24L115.84 21.24L116.62 19.49Q117.18 19.86 117.93 20.09Q118.67 20.32 119.39 20.32L119.39 20.32Q120.76 20.32 120.76 19.64L120.76 19.64Q120.76 19.28 120.37 19.11Q119.98 18.93 119.12 18.74L119.12 18.74Q118.17 18.53 117.53 18.30Q116.90 18.06 116.44 17.55Q115.99 17.03 115.99 16.16L115.99 16.16Q115.99 15.39 116.41 14.77Q116.83 14.15 117.66 13.79Q118.50 13.43 119.70 13.43L119.70 13.43Q120.53 13.43 121.33 13.62Q122.14 13.80 122.76 14.17L122.76 14.17L122.02 15.93Q120.82 15.28 119.69 15.28L119.69 15.28Q118.98 15.28 118.66 15.49Q118.34 15.70 118.34 16.04L118.34 16.04Q118.34 16.37 118.72 16.54Q119.10 16.71 119.95 16.89L119.95 16.89Q120.92 17.10 121.55 17.33Q122.18 17.56 122.64 18.07Q123.10 18.58 123.10 19.46L123.10 19.46Q123.10 20.21 122.68 20.83Q122.26 21.44 121.42 21.80Q120.58 22.17 119.38 22.17L119.38 22.17Q118.36 22.17 117.40 21.92Q116.44 21.67 115.84 21.24Z" fill="#FFFFFF" x="56.54"/></svg>