<svg xmlns="http://www.w3.org/2000/svg" width="428.24" height="35" viewBox="0 0 428.24 35"><rect class="svg__rect" x="0" y="0" width="92.19" height="35" fill="#31C4F3"/><rect class="svg__rect" x="90.19" y="0" width="338.05" height="35" fill="#389AD5"/><path class="svg__text" d="M15.69 22L14.22 22L14.22 13.47L16.14 13.47L18.60 20.01L21.06 13.47L22.97 13.47L22.97 22L21.49 22L21.49 19.19L21.64 15.43L19.12 22L18.06 22L15.55 15.43L15.69 19.19L15.69 22ZM28.49 22L26.95 22L30.17 13.47L31.50 13.47L34.73 22L33.18 22L32.49 20.01L29.18 20.01L28.49 22ZM30.83 15.28L29.60 18.82L32.07 18.82L30.83 15.28ZM41.14 22L38.69 22L38.69 13.47L41.21 13.47Q42.34 13.47 43.21 13.97Q44.09 14.48 44.57 15.40Q45.05 16.33 45.05 17.52L45.05 17.52L45.05 17.95Q45.05 19.16 44.57 20.08Q44.08 21.00 43.19 21.50Q42.30 22 41.14 22L41.14 22ZM40.17 14.66L40.17 20.82L41.14 20.82Q42.30 20.82 42.93 20.09Q43.55 19.36 43.56 17.99L43.56 17.99L43.56 17.52Q43.56 16.13 42.96 15.40Q42.35 14.66 41.21 14.66L41.21 14.66L40.17 14.66ZM55.09 22L49.51 22L49.51 13.47L55.05 13.47L55.05 14.66L51.00 14.66L51.00 17.02L54.50 17.02L54.50 18.19L51.00 18.19L51.00 20.82L55.09 20.82L55.09 22ZM66.83 22L65.35 22L65.35 13.47L66.83 13.47L66.83 22ZM73.12 22L71.64 22L71.64 13.47L73.12 13.47L76.94 19.54L76.94 13.47L78.41 13.47L78.41 22L76.92 22L73.12 15.95L73.12 22Z" fill="#FFFFFF"/><path class="svg__text" d="M103.95 17.80L103.95 17.80Q103.95 16.54 104.55 15.54Q105.15 14.55 106.20 13.99Q107.25 13.43 108.57 13.43L108.57 13.43Q109.72 13.43 110.64 13.84Q111.57 14.25 112.18 15.02L112.18 15.02L110.67 16.39Q109.86 15.40 108.69 15.40L108.69 15.40Q108.00 15.40 107.47 15.70Q106.94 16 106.64 16.54Q106.35 17.09 106.35 17.80L106.35 17.80Q106.35 18.51 106.64 19.05Q106.94 19.60 107.47 19.90Q108.00 20.20 108.69 20.20L108.69 20.20Q109.86 20.20 110.67 19.22L110.67 19.22L112.18 20.58Q111.57 21.35 110.65 21.76Q109.72 22.17 108.57 22.17L108.57 22.17Q107.25 22.17 106.20 21.61Q105.15 21.05 104.55 20.05Q103.95 19.06 103.95 17.80ZM116.29 17.80L116.29 17.80Q116.29 16.55 116.89 15.55Q117.50 14.56 118.56 14.00Q119.62 13.43 120.95 13.43L120.95 13.43Q122.28 13.43 123.35 14.00Q124.41 14.56 125.02 15.55Q125.62 16.55 125.62 17.80L125.62 17.80Q125.62 19.05 125.02 20.04Q124.41 21.04 123.35 21.60Q122.29 22.17 120.95 22.17L120.95 22.17Q119.62 22.17 118.56 21.60Q117.50 21.04 116.89 20.04Q116.29 19.05 116.29 17.80ZM118.69 17.80L118.69 17.80Q118.69 18.51 118.99 19.05Q119.29 19.60 119.81 19.90Q120.32 20.20 120.95 20.20L120.95 20.20Q121.59 20.20 122.11 19.90Q122.62 19.60 122.92 19.05Q123.22 18.51 123.22 17.80L123.22 17.80Q123.22 17.09 122.92 16.54Q122.62 16 122.11 15.70Q121.59 15.40 120.95 15.40L120.95 15.40Q120.32 15.40 119.80 15.70Q119.29 16 118.99 16.54Q118.69 17.09 118.69 17.80ZM132.55 22L130.35 22L130.35 13.60L132.31 13.60L135.26 18.45L138.15 13.60L140.10 13.60L140.12 22L137.94 22L137.92 17.55L135.75 21.17L134.70 21.17L132.55 17.67L132.55 22ZM147.66 22L145.28 22L145.28 13.60L149.13 13.60Q150.26 13.60 151.10 13.98Q151.94 14.35 152.40 15.06Q152.86 15.76 152.86 16.71L152.86 16.71Q152.86 17.66 152.40 18.35Q151.94 19.05 151.10 19.42Q150.26 19.80 149.13 19.80L149.13 19.80L147.66 19.80L147.66 22ZM147.66 15.47L147.66 17.93L148.98 17.93Q149.71 17.93 150.08 17.61Q150.46 17.29 150.46 16.71L150.46 16.71Q150.46 16.12 150.08 15.80Q149.71 15.47 148.98 15.47L148.98 15.47L147.66 15.47ZM157.54 18.26L157.54 18.26L157.54 13.60L159.92 13.60L159.92 18.19Q159.92 20.20 161.51 20.20L161.51 20.20Q163.09 20.20 163.09 18.19L163.09 18.19L163.09 13.60L165.44 13.60L165.44 18.26Q165.44 20.13 164.40 21.15Q163.36 22.17 161.49 22.17L161.49 22.17Q159.61 22.17 158.58 21.15Q157.54 20.13 157.54 18.26ZM172.32 15.48L169.73 15.48L169.73 13.60L177.26 13.60L177.26 15.48L174.69 15.48L174.69 22L172.32 22L172.32 15.48ZM188.37 22L181.63 22L181.63 13.60L188.22 13.60L188.22 15.44L183.98 15.44L183.98 16.85L187.72 16.85L187.72 18.63L183.98 18.63L183.98 20.17L188.37 20.17L188.37 22ZM195.56 22L193.18 22L193.18 13.60L197.02 13.60Q198.16 13.60 199.00 13.98Q199.84 14.35 200.30 15.06Q200.75 15.76 200.75 16.71L200.75 16.71Q200.75 17.62 200.33 18.30Q199.90 18.98 199.11 19.36L199.11 19.36L200.92 22L198.37 22L196.85 19.77L195.56 19.77L195.56 22ZM195.56 15.47L195.56 17.93L196.87 17.93Q197.61 17.93 197.98 17.61Q198.35 17.29 198.35 16.71L198.35 16.71Q198.35 16.12 197.98 15.79Q197.61 15.47 196.87 15.47L196.87 15.47L195.56 15.47ZM214.89 22L212.51 22L212.51 13.60L216.36 13.60Q217.49 13.60 218.33 13.98Q219.17 14.35 219.63 15.06Q220.09 15.76 220.09 16.71L220.09 16.71Q220.09 17.66 219.63 18.35Q219.17 19.05 218.33 19.42Q217.49 19.80 216.36 19.80L216.36 19.80L214.89 19.80L214.89 22ZM214.89 15.47L214.89 17.93L216.21 17.93Q216.94 17.93 217.31 17.61Q217.69 17.29 217.69 16.71L217.69 16.71Q217.69 16.12 217.31 15.80Q216.94 15.47 216.21 15.47L216.21 15.47L214.89 15.47ZM227.22 22L224.84 22L224.84 13.60L228.68 13.60Q229.83 13.60 230.66 13.98Q231.50 14.35 231.96 15.06Q232.42 15.76 232.42 16.71L232.42 16.71Q232.42 17.62 231.99 18.30Q231.56 18.98 230.77 19.36L230.77 19.36L232.58 22L230.04 22L228.51 19.77L227.22 19.77L227.22 22ZM227.22 15.47L227.22 17.93L228.54 17.93Q229.27 17.93 229.64 17.61Q230.01 17.29 230.01 16.71L230.01 16.71Q230.01 16.12 229.64 15.79Q229.27 15.47 228.54 15.47L228.54 15.47L227.22 15.47ZM236.78 17.80L236.78 17.80Q236.78 16.55 237.38 15.55Q237.98 14.56 239.05 14.00Q240.11 13.43 241.44 13.43L241.44 13.43Q242.77 13.43 243.83 14.00Q244.90 14.56 245.50 15.55Q246.11 16.55 246.11 17.80L246.11 17.80Q246.11 19.05 245.50 20.04Q244.90 21.04 243.84 21.60Q242.78 22.17 241.44 22.17L241.44 22.17Q240.11 22.17 239.05 21.60Q237.98 21.04 237.38 20.04Q236.78 19.05 236.78 17.80ZM239.17 17.80L239.17 17.80Q239.17 18.51 239.47 19.05Q239.78 19.60 240.29 19.90Q240.81 20.20 241.44 20.20L241.44 20.20Q242.08 20.20 242.59 19.90Q243.11 19.60 243.41 19.05Q243.71 18.51 243.71 17.80L243.71 17.80Q243.71 17.09 243.41 16.54Q243.11 16 242.59 15.70Q242.08 15.40 241.44 15.40L241.44 15.40Q240.80 15.40 240.29 15.70Q239.78 16 239.47 16.54Q239.17 17.09 239.17 17.80ZM250.41 17.80L250.41 17.80Q250.41 16.54 251.01 15.54Q251.61 14.55 252.68 13.99Q253.75 13.43 255.09 13.43L255.09 13.43Q256.26 13.43 257.20 13.83Q258.14 14.22 258.76 14.97L258.76 14.97L257.25 16.33Q256.41 15.40 255.23 15.40L255.23 15.40Q255.22 15.40 255.21 15.40L255.21 15.40Q254.13 15.40 253.47 16.06Q252.81 16.71 252.81 17.80L252.81 17.80Q252.81 18.50 253.11 19.04Q253.41 19.59 253.95 19.89Q254.49 20.20 255.19 20.20L255.19 20.20Q255.87 20.20 256.47 19.93L256.47 19.93L256.47 17.62L258.57 17.62L258.57 21.10Q257.85 21.61 256.91 21.89Q255.98 22.17 255.04 22.17L255.04 22.17Q253.72 22.17 252.66 21.61Q251.61 21.05 251.01 20.05Q250.41 19.06 250.41 17.80ZM265.94 22L263.56 22L263.56 13.60L267.40 13.60Q268.55 13.60 269.38 13.98Q270.22 14.35 270.68 15.06Q271.14 15.76 271.14 16.71L271.14 16.71Q271.14 17.62 270.71 18.30Q270.28 18.98 269.49 19.36L269.49 19.36L271.30 22L268.76 22L267.23 19.77L265.94 19.77L265.94 22ZM265.94 15.47L265.94 17.93L267.26 17.93Q267.99 17.93 268.36 17.61Q268.73 17.29 268.73 16.71L268.73 16.71Q268.73 16.12 268.36 15.79Q267.99 15.47 267.26 15.47L267.26 15.47L265.94 15.47ZM277.34 22L274.92 22L278.62 13.60L280.97 13.60L284.68 22L282.22 22L281.55 20.37L278.00 20.37L277.34 22ZM279.78 15.93L278.69 18.61L280.86 18.61L279.78 15.93ZM291.03 22L288.84 22L288.84 13.60L290.79 13.60L293.75 18.45L296.63 13.60L298.58 13.60L298.60 22L296.42 22L296.40 17.55L294.24 21.17L293.18 21.17L291.03 17.67L291.03 22ZM305.96 22L303.77 22L303.77 13.60L305.72 13.60L308.68 18.45L311.56 13.60L313.51 13.60L313.53 22L311.35 22L311.33 17.55L309.17 21.17L308.11 21.17L305.96 17.67L305.96 22ZM321.08 22L318.70 22L318.70 13.60L321.08 13.60L321.08 22ZM328.58 22L326.25 22L326.25 13.60L328.21 13.60L331.92 18.07L331.92 13.60L334.24 13.60L334.24 22L332.29 22L328.58 17.52L328.58 22ZM338.98 17.80L338.98 17.80Q338.98 16.54 339.57 15.54Q340.17 14.55 341.24 13.99Q342.31 13.43 343.65 13.43L343.65 13.43Q344.83 13.43 345.77 13.83Q346.70 14.22 347.33 14.97L347.33 14.97L345.81 16.33Q344.97 15.40 343.79 15.40L343.79 15.40Q343.78 15.40 343.77 15.40L343.77 15.40Q342.70 15.40 342.03 16.06Q341.37 16.71 341.37 17.80L341.37 17.80Q341.37 18.50 341.67 19.04Q341.98 19.59 342.51 19.89Q343.05 20.20 343.75 20.20L343.75 20.20Q344.44 20.20 345.03 19.93L345.03 19.93L345.03 17.62L347.13 17.62L347.13 21.10Q346.41 21.61 345.48 21.89Q344.54 22.17 343.60 22.17L343.60 22.17Q342.29 22.17 341.23 21.61Q340.17 21.05 339.57 20.05Q338.98 19.06 338.98 17.80ZM361.48 22L359.10 22L359.10 13.60L361.48 13.60L361.48 22ZM369.03 22L366.65 22L366.65 13.60L369.03 13.60L369.03 22ZM382.59 22L380.17 22L383.88 13.60L386.22 13.60L389.93 22L387.47 22L386.81 20.37L383.25 20.37L382.59 22ZM385.03 15.93L383.95 18.61L386.11 18.61L385.03 15.93ZM398.06 22L394.09 22L394.09 13.60L398.06 13.60Q399.44 13.60 400.51 14.12Q401.58 14.63 402.17 15.58Q402.75 16.53 402.75 17.80L402.75 17.80Q402.75 19.07 402.17 20.02Q401.58 20.97 400.51 21.48Q399.44 22 398.06 22L398.06 22ZM396.47 15.50L396.47 20.10L397.97 20.10Q399.05 20.10 399.70 19.49Q400.35 18.88 400.35 17.80L400.35 17.80Q400.35 16.72 399.70 16.11Q399.05 15.50 397.97 15.50L397.97 15.50L396.47 15.50ZM410.07 22L406.48 13.60L409.05 13.60L411.33 19.07L413.65 13.60L416.00 13.60L412.41 22L410.07 22Z" fill="#FFFFFF" x="103.19"/></svg>